<svg t="1707318059752" class="icon" viewBox="0 0 1024 1024" version="1.1" xmlns="http://www.w3.org/2000/svg" p-id="15099" width="16" height="16"><path d="M660.224 391.424c-52.224 0-96.384 35.008-110.336 82.816H106.112A10.112 10.112 0 0 0 96 484.288v44.032c0 5.568 4.48 10.048 10.112 10.048h443.776c13.952 47.808 58.112 82.816 110.336 82.816s96.448-35.008 110.336-82.816h147.328c5.632 0 10.112-4.48 10.112-10.048v-44.032a10.112 10.112 0 0 0-10.112-10.048H770.56a115.136 115.136 0 0 0-110.336-82.816z m0 165.632a50.816 50.816 0 1 1 0.128-101.568 50.816 50.816 0 0 1-0.128 101.568zM317.76 646.848c-52.224 0-96.448 35.072-110.336 82.816H106.112A10.112 10.112 0 0 0 96 739.776v43.968c0 5.568 4.48 10.112 10.112 10.112H207.36c13.888 47.744 58.112 82.816 110.336 82.816s96.384-35.072 110.272-82.816h489.856c5.568 0 10.112-4.48 10.112-10.112v-43.968a10.112 10.112 0 0 0-10.112-10.112H428.032a115.136 115.136 0 0 0-110.272-82.816z m0 165.632a50.816 50.816 0 1 1 0.064-101.568 50.816 50.816 0 0 1-0.064 101.568z m110.272-595.84c-13.888-47.808-58.048-82.88-110.272-82.88s-96.448 35.072-110.336 82.816H106.112A10.112 10.112 0 0 0 96 226.688v43.968c0 5.568 4.48 10.112 10.112 10.112H207.36c13.888 47.744 58.112 82.816 110.336 82.816s96.384-35.072 110.272-82.816h489.856c5.568 0 10.112-4.48 10.112-10.112v-43.968a10.112 10.112 0 0 0-10.112-10.112H428.032zM317.76 299.328a50.816 50.816 0 1 1 0.064-101.568 50.816 50.816 0 0 1-0.064 101.568z" fill="#60636B" p-id="15100"></path></svg>