<svg t="1707317109989" class="icon" viewBox="0 0 1024 1024" version="1.1" xmlns="http://www.w3.org/2000/svg" p-id="6130" width="16" height="16"><path d="M866.46 0H157.54q-50.46 1.23-83.69 34.46-33.23 33.23-34.47 83.69v787.7q1.24 50.46 34.47 83.69t83.69 34.46h708.92q50.46-1.23 83.69-34.46 33.23-33.23 34.47-83.69v-787.7q-1.24-50.46-34.47-83.69T866.46 0zM710.15 513.23q0 16-11.07 27.69-11.08 11.7-28.31 11.7H236.31q-17.23 0-28.31-11.7-11.08-11.69-11.08-28.31 0-16.62 11.08-27.69t28.31-11.07h434.46q17.23 0 28.31 11.07 11.07 11.07 11.07 28.31zM510.77 196.92q25.85 1.23 42.47 17.84 16.62 16.62 16.62 41.24t-16.62 41.85q-16.62 17.23-41.85 17.23-25.24 0-41.85-17.23-16.61-17.23-16.61-41.85t16.61-41.24q16.62-16.61 41.24-17.84z m-254.77 0q24.62 1.23 41.24 17.84 16.62 16.62 16.62 41.24t-16.62 41.85q-16.62 17.23-41.85 17.23t-41.85-17.23q-16.62-17.23-16.62-41.85t16.62-41.24q16.62-16.61 42.47-17.84z m530.46 590.77H236.31q-17.23-1.23-28.31-12.31-11.08-11.08-11.08-27.69T208 720q11.08-11.08 28.31-11.08h550.15q16 0 27.69 11.08 11.7 11.08 11.7 27.69 0 16.62-11.7 27.69-11.69 11.08-27.69 12.31z m-19.69-472.61q-24.62 0-41.24-17.23T708.91 256q0-24.62 16.62-41.24 16.62-16.61 41.85-16.61 25.24 0 41.85 16.61 16.62 16.62 16.62 41.24t-16.62 41.85q-16.62 17.23-42.47 17.23z" fill="#666666" p-id="6131"></path></svg>