<svg t="1715499441629" class="icon" viewBox="0 0 1024 1024" version="1.1" xmlns="http://www.w3.org/2000/svg" p-id="17715" width="64" height="64"><path d="M512 98C283.354 98 98 283.354 98 512s185.354 414 414 414 414-185.354 414-414S740.646 98 512 98z m0 60c195.509 0 354 158.491 354 354S707.509 866 512 866 158 707.509 158 512s158.491-354 354-354z" fill="#4633FF" p-id="17716"></path><path d="M267 482c16.403 0 29.731 13.164 29.996 29.504L297 512c0 117.554 94.343 213.073 211.445 214.971L512 727c16.569 0 30 13.431 30 30 0 16.569-13.431 30-30 30-151.878 0-275-123.122-275-275 0-16.569 13.431-30 30-30z m245-245c151.878 0 275 123.122 275 275 0 16.569-13.431 30-30 30-16.403 0-29.731-13.164-29.996-29.504L727 512c0-117.554-94.343-213.073-211.445-214.971L512 297c-16.569 0-30-13.431-30-30 0-16.569 13.431-30 30-30z" fill="#4633FF" p-id="17717"></path><path d="M511.5 511.5m-104.5 0a104.5 104.5 0 1 0 209 0 104.5 104.5 0 1 0-209 0Z" fill="#48EBE9" p-id="17718"></path></svg>