<svg t="1728956121611" class="icon" viewBox="0 0 1024 1024" version="1.1" xmlns="http://www.w3.org/2000/svg" p-id="14292" width="64" height="64"><path d="M819.2 480.028444H204.8c-36.522667 0-66.161778 29.582222-66.161778 66.104889v273.066667c0 36.522667 29.639111 66.104889 66.161778 66.104889h614.4c36.522667 0 66.104889-29.582222 66.104889-66.104889V546.133333c0-36.522667-29.582222-66.104889-66.104889-66.104889zM204.8 543.971556h614.4c1.137778 0 2.104889 0.967111 2.104889 2.161777v273.066667c0 1.137778-0.910222 2.104889-2.104889 2.104889H204.8a2.104889 2.104889 0 0 1-2.161778-2.104889V546.133333c0-1.137778 0.967111-2.104889 2.161778-2.104889z" fill="#333333" p-id="14293"></path><path d="M256 640m34.133333 0l187.733334 0q34.133333 0 34.133333 34.133333l0 59.733334q0 34.133333-34.133333 34.133333l-187.733334 0q-34.133333 0-34.133333-34.133333l0-59.733334q0-34.133333 34.133333-34.133333Z" fill="#333333" p-id="14294"></path><path d="M640 640m34.133333 0l59.733334 0q34.133333 0 34.133333 34.133333l0 59.733334q0 34.133333-34.133333 34.133333l-59.733334 0q-34.133333 0-34.133333-34.133333l0-59.733334q0-34.133333 34.133333-34.133333Z" fill="#333333" p-id="14295"></path><path d="M597.333333 373.361778c15.928889 0 29.127111 11.548444 31.573334 26.737778l0.455111 5.233777V512a31.971556 31.971556 0 0 1-63.601778 5.176889L565.304889 512V405.333333c0-17.635556 14.336-32.028444 32.028444-32.028444zM597.333333 138.695111c152.860444 0 280.462222 92.387556 287.687111 213.219556l0.284445 10.752h-63.943111c0-86.016-98.645333-160.028444-224.028445-160.028445-121.173333 0-217.372444 69.12-223.687111 151.495111l-0.284444 8.533334H309.361778c0-126.065778 130.56-224.028444 287.971555-224.028445z" fill="#333333" p-id="14296"></path><path d="M597.333333 259.584c71.281778 0 133.12 39.139556 138.296889 95.288889l0.398222 7.793778h-64.056888c0-18.204444-31.288889-39.139556-74.638223-39.139556-40.391111 0-70.428444 18.204444-74.24 35.441778l-0.455111 3.697778H458.695111c0-60.302222 64.170667-103.139556 138.638222-103.139556z" fill="#333333" p-id="14297"></path><path d="M0 0h1024v1024H0z" fill="#333333" fill-opacity="0" p-id="14298"></path></svg>