<svg t="1707316125621" class="icon" viewBox="0 0 1024 1024" version="1.1" xmlns="http://www.w3.org/2000/svg" p-id="7662" width="16" height="16"><path d="M881.32 881.32H142.682V142.68H881.32v738.64z m-724.598-14.04H867.28V156.72H156.722v710.56z" fill="#8A8A8A" p-id="7663"></path><path d="M174.948 174.974V849.03h674.108V174.974H174.948z m643.134 566.784l-75.642 76.3H281.616l-75.642-76.3-0.05-459.46 75.692-76.348H742.44l75.642 76.348v459.46zM326.144 156.72h-79.782V0h79.782v156.72z m-65.742-14.04h51.702V14.04h-51.702v128.64z" fill="#8A8A8A" p-id="7664"></path><path d="M278.648 32.284h15.21v92.152h-15.21zM474.512 156.72H394.73V0h79.782v156.72z m-65.742-14.04h51.702V14.04H408.77v128.64z" fill="#8A8A8A" p-id="7665"></path><path d="M427.016 32.284h15.212v92.152h-15.212zM622.878 156.72h-79.776V0h79.776v156.72z m-65.738-14.04h51.698V14.04H557.14v128.64z" fill="#8A8A8A" p-id="7666"></path><path d="M575.384 32.284h15.208v92.152h-15.208zM771.248 156.72h-79.782V0h79.782v156.72z m-65.742-14.04h51.702V14.04h-51.702v128.64z" fill="#8A8A8A" p-id="7667"></path><path d="M723.75 32.284h15.214v92.152H723.75zM326.144 1024h-79.782V867.28h79.782V1024z m-65.742-14.04h51.702V881.32h-51.702v128.64z" fill="#8A8A8A" p-id="7668"></path><path d="M278.648 899.562h15.21v92.152h-15.21zM474.512 1024H394.73V867.28h79.782V1024z m-65.742-14.04h51.702V881.32H408.77v128.64z" fill="#8A8A8A" p-id="7669"></path><path d="M427.016 899.562h15.212v92.152h-15.212zM622.878 1024h-79.776V867.28h79.776V1024z m-65.738-14.04h51.698V881.32H557.14v128.64z" fill="#8A8A8A" p-id="7670"></path><path d="M575.384 899.562h15.208v92.152h-15.208zM771.248 1024h-79.782V867.28h79.782V1024z m-65.742-14.04h51.702V881.32h-51.702v128.64z" fill="#8A8A8A" p-id="7671"></path><path d="M723.75 899.562h15.214v92.152H723.75zM1024 329.336H867.28v-79.778H1024v79.778z m-142.68-14.038h128.64v-51.7H881.32v51.7z" fill="#8A8A8A" p-id="7672"></path><path d="M899.564 281.842h92.15v15.21h-92.15zM1024 477.704H867.28v-79.778H1024v79.778z m-142.68-14.04h128.64v-51.7H881.32v51.7z" fill="#8A8A8A" p-id="7673"></path><path d="M899.564 430.208h92.15v15.212h-92.15zM1024 626.072H867.28v-79.778H1024v79.778z m-142.68-14.04h128.64v-51.7H881.32v51.7z" fill="#8A8A8A" p-id="7674"></path><path d="M899.564 578.578h92.15v15.21h-92.15zM1024 774.442H867.28V694.66H1024v79.782z m-142.68-14.04h128.64V708.7H881.32v51.702z" fill="#8A8A8A" p-id="7675"></path><path d="M899.564 726.944h92.15v15.212h-92.15zM156.722 329.336H0v-79.778h156.722v79.778zM14.04 315.298h128.642v-51.7H14.04v51.7z" fill="#8A8A8A" p-id="7676"></path><path d="M32.284 281.842h92.152v15.21H32.284zM156.722 477.704H0v-79.778h156.722v79.778zM14.04 463.664h128.642v-51.7H14.04v51.7z" fill="#8A8A8A" p-id="7677"></path><path d="M32.284 430.208h92.152v15.212H32.284zM156.722 626.072H0v-79.778h156.722v79.778zM14.04 612.032h128.642v-51.7H14.04v51.7z" fill="#8A8A8A" p-id="7678"></path><path d="M32.284 578.576h92.152v15.212H32.284zM156.722 774.438H0v-79.776h156.722v79.776zM14.04 760.398h128.642V708.7H14.04v51.698z" fill="#8A8A8A" p-id="7679"></path><path d="M32.284 726.944h92.152v15.212H32.284zM586.652 656.36H447.614l-88.636 87.982h-150.41l-2.574-2.622-0.046-32.852H340.4l86.624-87.794h158.694a50.19 50.19 0 0 0-2.714 16.426c-0.002 6.692 1.26 13.056 3.648 18.86z" fill="#8A8A8A" p-id="7680"></path><path d="M633.896 695.438c-31.94 0-57.926-25.986-57.926-57.926s25.986-57.93 57.926-57.93c31.946 0 57.932 25.988 57.932 57.93 0 31.94-25.986 57.926-57.932 57.926z m0-101.816c-24.198 0-43.888 19.69-43.888 43.89 0 24.198 19.688 43.888 43.888 43.888 24.204 0 43.892-19.688 43.892-43.888s-19.688-43.89-43.892-43.89z" fill="#8A8A8A" p-id="7681"></path><path d="M633.896 665.174c-15.256 0-27.664-12.408-27.664-27.664 0-15.256 12.408-27.664 27.664-27.664 15.256 0 27.664 12.408 27.664 27.664 0 15.256-12.408 27.664-27.664 27.664z m0-41.286a13.638 13.638 0 0 0-13.624 13.624 13.638 13.638 0 0 0 13.624 13.624 13.638 13.638 0 0 0 13.624-13.624 13.638 13.638 0 0 0-13.624-13.624zM437.36 367.672h139.038l88.636-87.982h150.41l2.574 2.622 0.046 32.852H683.612l-86.624 87.794H438.294a50.18 50.18 0 0 0 2.714-16.426c0.002-6.692-1.262-13.056-3.648-18.86z" fill="#8A8A8A" p-id="7682"></path><path d="M361.87 751.358H205.626l-6.648-6.76-0.06-42.754h138.544l86.622-87.792h171.494l-3.232 9.318a43.076 43.076 0 0 0-2.326 14.126c0 5.708 1.052 11.156 3.122 16.192l3.98 9.688h-146.62l-88.632 87.982z m-148.864-14.04h143.078l88.636-87.98h132.466a57.96 57.96 0 0 1-1.202-11.842c0-3.186 0.252-6.33 0.754-9.406h-146.78l-86.622 87.792h-130.36l0.03 21.436z m386.916-327.34H428.448l3.212-9.31a43.26 43.26 0 0 0 2.328-14.136c0-5.71-1.052-11.156-3.122-16.188l-3.988-9.692h146.626l88.634-87.982h156.254l6.64 6.766 0.06 42.746H686.544l-86.622 87.796z m-152.648-14.04h146.78l86.622-87.792h130.36l-0.032-21.434H667.926l-88.634 87.982H446.826a57.92 57.92 0 0 1 1.202 11.838 58.44 58.44 0 0 1-0.754 9.406z" fill="#8A8A8A" p-id="7683"></path><path d="M390.112 444.45c-31.944 0-57.928-25.986-57.928-57.928s25.986-57.928 57.928-57.928 57.928 25.986 57.928 57.928-25.984 57.928-57.928 57.928z m0-101.818c-24.202 0-43.89 19.688-43.89 43.89s19.688 43.89 43.89 43.89 43.89-19.688 43.89-43.89-19.688-43.89-43.89-43.89z" fill="#8A8A8A" p-id="7684"></path><path d="M390.112 414.184c-15.252 0-27.664-12.41-27.664-27.664 0-15.252 12.41-27.664 27.664-27.664 15.256 0 27.666 12.41 27.666 27.664 0 15.254-12.41 27.664-27.666 27.664z m0-41.286c-7.512 0-13.624 6.112-13.624 13.624s6.112 13.624 13.624 13.624c7.514 0 13.626-6.112 13.626-13.624s-6.112-13.624-13.626-13.624z m-110.89 226.498h-14.04v-14.04h14.04v14.04z m0-28.078h-14.04v-14.04h14.04v14.04z m0-28.08h-14.04v-14.04h14.04v14.04z m0-28.078h-14.04v-14.04h14.04v14.04z m0-28.08h-14.04v-14.04h14.04v14.04z m0-28.078h-14.04v-14.04h14.04v14.04z m0-28.08h-14.04v-14.04h14.04v14.04z m0-28.078h-14.04v-14.04h14.04v14.04z m0-28.08h-14.04v-14.04h14.04v14.04z m0.09-27.752l-14.026-0.648a95.033 95.033 0 0 1 1.902-15.02l13.742 2.87a80.934 80.934 0 0 0-1.618 12.798z m5.266-25.17l-13.102-5.04a94.368 94.368 0 0 1 6.562-13.66l12.124 7.074a80.71 80.71 0 0 0-5.584 11.626z m12.958-22.216l-10.844-8.916a95.504 95.504 0 0 1 10.506-10.892l9.3 10.52a81.242 81.242 0 0 0-8.962 9.288z m19.274-17.038l-7.514-11.86a94.92 94.92 0 0 1 13.402-7.052l5.516 12.91a80.842 80.842 0 0 0-11.404 6.002z m23.628-10.098l-3.372-13.628a95.222 95.222 0 0 1 14.942-2.45l1.16 13.99a81.48 81.48 0 0 0-12.73 2.088z m292.928-2.362h-14.04v-14.04h14.04v14.04z m-28.078 0h-14.04v-14.04h14.04v14.04z m-28.08 0h-14.04v-14.04h14.04v14.04z m-28.078 0h-14.04v-14.04h14.04v14.04z m-28.08 0h-14.04v-14.04h14.04v14.04z m-28.078 0h-14.04v-14.04h14.04v14.04z m-28.08 0h-14.04v-14.04h14.04v14.04z m-28.08 0h-14.04v-14.04h14.04v14.04z m-28.078 0h-14.04v-14.04h14.04v14.04z m-28.08 0h-14.04v-14.04h14.04v14.04z m279.04 498.826h-14.04v-14.04h14.04v14.04z m-28.078 0h-14.04v-14.04h14.04v14.04z m-28.08 0h-14.04v-14.04h14.04v14.04z m-28.078 0h-14.04v-14.04h14.04v14.04z m-28.08 0h-14.04v-14.04h14.04v14.04z m-28.078 0h-14.04v-14.04h14.04v14.04z m-28.08 0h-14.04v-14.04h14.04v14.04z m-28.078 0h-14.04v-14.04h14.04v14.04z m-28.08 0h-14.04v-14.04h14.04v14.04z m-28.078 0h-14.04v-14.04h14.04v14.04z m267.312-0.334l-1.134-13.994a80.12 80.12 0 0 0 12.71-2.08l3.372 13.628a93.706 93.706 0 0 1-14.948 2.446z m29.322-7.258l-5.53-12.906a80.584 80.584 0 0 0 11.412-6.006l7.514 11.864a95.104 95.104 0 0 1-13.396 7.048z m25.492-16.136l-9.296-10.52a81.666 81.666 0 0 0 8.958-9.286l10.85 8.902a94.954 94.954 0 0 1-10.512 10.904z m19.154-23.318l-12.12-7.092a79.26 79.26 0 0 0 5.584-11.618l13.108 5.036a93.846 93.846 0 0 1-6.572 13.674z m10.86-28.216l-13.748-2.87a81.212 81.212 0 0 0 1.622-12.796l14.022 0.648a95.59 95.59 0 0 1-1.896 15.018z m2-29.376h-14.04v-14.04h14.04v14.04z m0-28.08h-14.04v-14.04h14.04v14.04z m0-28.078h-14.04v-14.04h14.04v14.04z m0-28.08h-14.04v-14.04h14.04v14.04z m-14.038-28.076l-0.004-14.04 14.04-0.004 0.004 14.04-14.04 0.004z m14.034-28.082h-14.04v-14.04h14.04v14.04z m0-28.078h-14.04v-14.04h14.04v14.04z m0-28.08h-14.04v-14.04h14.04v14.04z m0-28.078h-14.04v-14.04h14.04v14.04zM503.674 568.838h-45.606c-15.058 0-27.306-12.25-27.306-27.306v-40.394c0-15.056 12.248-27.306 27.306-27.306h45.606v14.04h-45.606A13.284 13.284 0 0 0 444.8 501.14v40.394a13.284 13.284 0 0 0 13.268 13.268h45.606v14.036z" fill="#8A8A8A" p-id="7685"></path><path d="M437.782 514.316h65.892v14.04h-65.892z m140.574 54.522H530.63v-95.006h47.726c17.76 0 32.21 14.448 32.21 32.208v30.592c0 17.758-14.452 32.206-32.21 32.206z m-33.688-14.04h33.686c10.018 0 18.17-8.148 18.17-18.166V506.04c0-10.018-8.154-18.168-18.17-18.168h-33.686v66.926z" fill="#8A8A8A" p-id="7686"></path><path d="M745.38 825.07H278.662l-79.702-80.444-0.062-465.242 79.768-80.44H745.38l79.704 80.442v465.24L745.38 825.07z m-460.862-14.04h455.014l71.514-72.18V285.164l-71.514-72.178H284.514l-71.578 72.18 0.062 453.684 71.52 72.18z" fill="#8A8A8A" p-id="7687"></path></svg>