<svg t="1707317198187" class="icon" viewBox="0 0 1024 1024" version="1.1" xmlns="http://www.w3.org/2000/svg" p-id="7173" width="16" height="16"><path d="M983.02976 0H40.96c-22.66112 0-40.96 18.30912-40.96 40.96v942.08c0 22.66112 18.30912 40.96 40.96 40.96h942.06976c22.66112 0 40.96-18.30912 40.96-40.96V40.96c0.01024-22.65088-18.29888-40.96-40.96-40.96z m-51.2 931.84H92.16V92.16h839.66976v839.68z m-640-200.96V829.44c0 5.64224 4.608 10.24 10.24 10.24h61.44c5.632 0 10.24-4.608 10.24-10.24v-98.56c-12.93312 4.22912-26.624 6.4-40.96 6.4s-28.02688-2.304-40.96-6.4z m81.93024-253.44V194.56c0-5.64224-4.608-10.24-10.24-10.24h-61.44c-5.632 0-10.24 4.608-10.24 10.24v282.86976c12.93312-4.21888 26.624-6.4 40.96-6.4s28.02688 2.31424 40.96 6.41024z m-81.93024 253.44c12.93312 4.22912 26.624 6.4 40.96 6.4s28.03712-2.304 40.96-6.4c53.504-17.28512 92.16-67.46112 92.16-126.72 0-59.26912-38.656-109.44512-92.16-126.73024-12.93312-4.21888-26.624-6.4-40.96-6.4s-28.03712 2.304-40.96 6.4c-53.504 17.28512-92.16 67.46112-92.16 126.73024 0.01024 59.26912 38.66624 109.44512 92.16 126.72z m0.13312-148.10112c0.37888-0.75776 0.89088-1.536 1.28-2.304v-0.13312l1.536-2.304c0.13312-0.256 0.256-0.38912 0.38912-0.64512 0.37888-0.63488 0.89088-1.14688 1.28-1.792 0.12288-0.13312 0.256-0.38912 0.37888-0.512 0.64512-0.768 1.14688-1.41312 1.792-2.048l2.42688-2.42688c0.63488-0.64512 1.28-1.14688 2.048-1.792 0.768-0.63488 1.40288-1.14688 2.17088-1.65888 0.256-0.13312 0.37888-0.256 0.63488-0.38912 0.64512-0.37888 1.15712-0.89088 1.792-1.28 0.12288-0.13312 0.37888-0.256 0.512-0.38912 0.768-0.512 1.536-0.89088 2.42688-1.40288 0.12288-0.13312 0.37888-0.13312 0.512-0.256 0.63488-0.37888 1.28-0.63488 2.048-1.024l0.75776-0.37888c0.90112-0.38912 1.66912-0.768 2.56-1.024 0.89088-0.38912 1.792-0.64512 2.69312-0.90112 0.256-0.12288 0.512-0.12288 0.768-0.24576 0.768-0.256 1.40288-0.38912 2.17088-0.512 0.256 0 0.38912-0.13312 0.64512-0.13312 0.89088-0.256 1.91488-0.37888 2.816-0.512 0.256 0 0.38912 0 0.64512-0.12288 0.75776-0.13312 1.536-0.13312 2.304-0.256h0.768c1.024 0 1.91488-0.13312 2.94912-0.13312 1.024 0 1.91488 0 2.94912 0.13312h0.768c0.768 0 1.536 0.12288 2.304 0.256 0.256 0 0.37888 0 0.63488 0.12288 0.89088 0.13312 1.91488 0.256 2.816 0.512 0.256 0 0.37888 0.13312 0.63488 0.13312 0.768 0.12288 1.536 0.37888 2.17088 0.512 0.256 0.12288 0.512 0.12288 0.768 0.24576 0.89088 0.256 1.792 0.512 2.69312 0.90112 0.89088 0.256 1.65888 0.63488 2.56 1.024l0.768 0.37888c0.63488 0.256 1.40288 0.64512 2.048 1.024 0.13312 0.12288 0.38912 0.12288 0.512 0.256 0.768 0.37888 1.65888 0.89088 2.43712 1.40288 0.13312 0.13312 0.38912 0.256 0.512 0.38912 0.64512 0.37888 1.28 0.768 1.792 1.28 0.256 0.13312 0.37888 0.256 0.63488 0.38912 0.768 0.512 1.536 1.14688 2.18112 1.65888 0.63488 0.512 1.40288 1.14688 2.048 1.792l2.43712 2.42688c0.64512 0.63488 1.28 1.40288 1.792 2.048 0.13312 0.12288 0.256 0.37888 0.37888 0.512 0.512 0.50176 0.90112 1.14688 1.28 1.792 0.13312 0.256 0.256 0.38912 0.38912 0.64512l1.536 2.304s0 0.13312 0.13312 0.13312c0.512 0.768 0.89088 1.536 1.28 2.304a46.32576 46.32576 0 0 1 5.24288 21.38112c0 7.66976-1.91488 14.97088-5.24288 21.37088-0.38912 0.768-0.90112 1.536-1.28 2.304 0 0 0 0.13312-0.13312 0.13312l-1.536 2.304c-0.13312 0.24576-0.256 0.37888-0.38912 0.63488-0.37888 0.63488-0.89088 1.14688-1.28 1.792-0.12288 0.12288-0.24576 0.37888-0.37888 0.512-0.63488 0.75776-1.14688 1.40288-1.792 2.048l-0.37888 0.38912-1.536 1.536-0.512 0.512c-0.63488 0.64512-1.28 1.15712-2.048 1.792-0.768 0.63488-1.41312 1.14688-2.18112 1.65888-0.256 0.13312-0.37888 0.256-0.63488 0.38912-0.63488 0.37888-1.14688 0.89088-1.792 1.28-0.12288 0.12288-0.37888 0.256-0.512 0.37888-0.768 0.512-1.536 0.89088-2.43712 1.40288-0.12288 0.13312-0.37888 0.13312-0.512 0.256-0.63488 0.38912-1.28 0.64512-2.048 1.024l-0.768 0.38912c-0.90112 0.37888-1.66912 0.75776-2.56 1.024-0.89088 0.38912-1.792 0.64512-2.69312 0.90112-0.256 0.12288-0.512 0.12288-0.768 0.256-0.768 0.256-1.40288 0.37888-2.17088 0.512-0.256 0-0.37888 0.12288-0.63488 0.12288-0.90112 0.256-1.92512 0.38912-2.816 0.512-0.256 0-0.37888 0-0.63488 0.12288-0.768 0.13312-1.536 0.13312-2.304 0.256h-0.768c-1.024 0-1.92512 0.13312-2.94912 0.13312s-1.92512 0-2.94912-0.13312h-0.768c-0.768 0-1.536-0.12288-2.304-0.256-0.256 0-0.38912 0-0.64512-0.12288-0.89088-0.12288-1.92512-0.256-2.816-0.512-0.256 0-0.38912-0.12288-0.64512-0.12288-0.768-0.13312-1.536-0.38912-2.17088-0.512-0.256-0.13312-0.512-0.13312-0.768-0.256-0.89088-0.256-1.792-0.512-2.69312-0.90112-0.89088-0.256-1.65888-0.63488-2.56-1.024l-0.75776-0.38912c-0.64512-0.256-1.41312-0.63488-2.048-1.024-0.13312-0.12288-0.38912-0.12288-0.512-0.256-0.768-0.37888-1.65888-0.89088-2.42688-1.40288-0.13312-0.12288-0.38912-0.256-0.512-0.37888-0.63488-0.38912-1.28-0.768-1.792-1.28-0.256-0.13312-0.37888-0.256-0.63488-0.38912-0.768-0.512-1.536-1.14688-2.17088-1.65888-0.64512-0.512-1.41312-1.14688-2.048-1.792l-0.512-0.512-1.536-1.536-0.37888-0.38912c-0.64512-0.63488-1.28-1.40288-1.792-2.048-0.12288-0.13312-0.256-0.38912-0.37888-0.512-0.512-0.512-0.90112-1.15712-1.28-1.792-0.13312-0.256-0.256-0.38912-0.38912-0.63488l-1.536-2.304v-0.13312c-0.512-0.75776-0.90112-1.536-1.28-2.304-3.328-6.4-5.25312-13.70112-5.25312-21.37088-0.01024-7.68 1.91488-14.98112 5.24288-21.38112z m358.26688-36.21888V829.44c0 5.64224 4.608 10.24 10.24 10.24h61.44c5.632 0 10.24-4.608 10.24-10.24V546.56c-12.93312 4.21888-26.624 6.4-40.96 6.4s-28.02688-2.304-40.96-6.4z m81.93024-253.44V194.56c0-5.64224-4.608-10.24-10.24-10.24h-61.44c-5.632 0-10.24 4.608-10.24 10.24v98.56c12.93312-4.22912 26.624-6.4 40.96-6.4s28.02688 2.304 40.96 6.4z m-81.93024 253.44c12.93312 4.21888 26.624 6.4 40.96 6.4s28.03712-2.304 40.96-6.4c53.504-17.28512 92.16-67.46112 92.16-126.73024 0-59.25888-38.656-109.43488-92.16-126.72-12.93312-4.22912-26.624-6.4-40.96-6.4s-28.03712 2.304-40.96 6.4c-53.504 17.28512-92.16 67.46112-92.16 126.72 0.01024 59.27936 38.66624 109.45536 92.16 126.73024z m0.13312-148.10112c0.37888-0.768 0.89088-1.536 1.28-2.304v-0.13312l1.536-2.304c0.13312-0.24576 0.256-0.37888 0.38912-0.63488 0.37888-0.63488 0.89088-1.14688 1.28-1.792 0.12288-0.12288 0.256-0.37888 0.37888-0.512 0.64512-0.75776 1.14688-1.40288 1.792-2.048l0.37888-0.38912 1.536-1.536 0.512-0.512c0.63488-0.64512 1.28-1.15712 2.048-1.792 0.768-0.63488 1.40288-1.14688 2.18112-1.65888 0.256-0.13312 0.37888-0.256 0.63488-0.38912 0.64512-0.37888 1.15712-0.89088 1.792-1.28 0.12288-0.12288 0.37888-0.256 0.512-0.37888 0.768-0.512 1.536-0.89088 2.42688-1.40288 0.12288-0.13312 0.37888-0.13312 0.512-0.256 0.63488-0.38912 1.28-0.64512 2.048-1.024l0.75776-0.38912c0.90112-0.37888 1.66912-0.75776 2.56-1.024 0.89088-0.38912 1.792-0.64512 2.68288-0.90112 0.256-0.12288 0.512-0.12288 0.768-0.256 0.768-0.256 1.40288-0.37888 2.17088-0.512 0.256 0 0.38912-0.12288 0.64512-0.12288 0.89088-0.256 1.91488-0.38912 2.816-0.512 0.256 0 0.38912 0 0.64512-0.12288 0.75776-0.13312 1.536-0.13312 2.304-0.256h0.768c1.024 0 1.91488-0.13312 2.94912-0.13312 1.024 0 1.91488 0 2.94912 0.13312h0.768c0.768 0 1.536 0.12288 2.304 0.256 0.256 0 0.37888 0 0.63488 0.12288 0.89088 0.12288 1.91488 0.256 2.816 0.512 0.256 0 0.37888 0.12288 0.63488 0.12288 0.768 0.13312 1.536 0.38912 2.17088 0.512 0.256 0.13312 0.512 0.13312 0.768 0.256 0.89088 0.256 1.792 0.512 2.68288 0.90112 0.89088 0.256 1.65888 0.63488 2.56 1.024l0.768 0.38912c0.63488 0.256 1.40288 0.63488 2.048 1.024 0.13312 0.12288 0.38912 0.12288 0.512 0.256 0.768 0.37888 1.65888 0.89088 2.43712 1.40288 0.13312 0.12288 0.38912 0.256 0.512 0.37888 0.64512 0.38912 1.28 0.768 1.792 1.28 0.256 0.13312 0.37888 0.256 0.63488 0.38912 0.768 0.512 1.536 1.14688 2.18112 1.65888 0.63488 0.512 1.40288 1.14688 2.048 1.792l0.512 0.512 1.536 1.536 0.37888 0.38912c0.64512 0.63488 1.28 1.40288 1.792 2.048 0.13312 0.13312 0.256 0.38912 0.37888 0.512 0.512 0.512 0.90112 1.15712 1.28 1.792 0.13312 0.256 0.256 0.38912 0.38912 0.63488l1.536 2.304v0.13312c0.512 0.75776 0.90112 1.536 1.28 2.304 3.328 6.4 5.25312 13.70112 5.25312 21.37088 0 7.68-1.91488 14.98112-5.25312 21.38112-0.37888 0.75776-0.89088 1.536-1.28 2.304v0.13312l-1.536 2.304c-0.13312 0.256-0.256 0.38912-0.38912 0.64512-0.37888 0.63488-0.89088 1.14688-1.28 1.792-0.12288 0.13312-0.24576 0.38912-0.37888 0.512-0.63488 0.768-1.14688 1.41312-1.792 2.048l-2.43712 2.42688c-0.63488 0.64512-1.28 1.14688-2.048 1.792-0.768 0.63488-1.41312 1.14688-2.18112 1.65888-0.256 0.13312-0.37888 0.256-0.63488 0.38912-0.63488 0.37888-1.14688 0.89088-1.792 1.28-0.12288 0.13312-0.37888 0.256-0.512 0.38912-0.768 0.512-1.536 0.89088-2.43712 1.40288-0.12288 0.13312-0.37888 0.13312-0.512 0.256-0.63488 0.37888-1.28 0.63488-2.048 1.024l-0.768 0.37888c-0.90112 0.38912-1.66912 0.768-2.56 1.024-0.89088 0.38912-1.792 0.64512-2.68288 0.90112-0.256 0.12288-0.512 0.12288-0.768 0.24576-0.768 0.256-1.40288 0.38912-2.17088 0.512-0.256 0-0.37888 0.13312-0.63488 0.13312-0.90112 0.256-1.92512 0.37888-2.816 0.512-0.256 0-0.37888 0-0.63488 0.12288-0.768 0.13312-1.536 0.13312-2.304 0.256h-0.768c-1.024 0-1.92512 0.13312-2.94912 0.13312s-1.92512 0-2.94912-0.13312h-0.768c-0.768 0-1.536-0.12288-2.304-0.256-0.256 0-0.38912 0-0.64512-0.12288-0.89088-0.13312-1.92512-0.256-2.816-0.512-0.256 0-0.38912-0.13312-0.64512-0.13312-0.768-0.12288-1.536-0.37888-2.17088-0.512-0.256-0.12288-0.512-0.12288-0.768-0.24576-0.89088-0.256-1.792-0.512-2.68288-0.90112-0.89088-0.256-1.65888-0.63488-2.56-1.024l-0.75776-0.37888c-0.64512-0.256-1.41312-0.64512-2.048-1.024-0.13312-0.12288-0.38912-0.12288-0.512-0.256-0.768-0.37888-1.65888-0.89088-2.42688-1.40288-0.13312-0.13312-0.38912-0.256-0.512-0.38912-0.63488-0.37888-1.28-0.768-1.792-1.28-0.256-0.13312-0.37888-0.256-0.63488-0.38912-0.768-0.512-1.536-1.14688-2.18112-1.65888-0.64512-0.512-1.41312-1.14688-2.048-1.792l-2.42688-2.42688c-0.64512-0.63488-1.28-1.40288-1.792-2.048-0.12288-0.12288-0.256-0.37888-0.37888-0.512-0.512-0.50176-0.90112-1.14688-1.28-1.792-0.13312-0.256-0.256-0.38912-0.38912-0.64512l-1.536-2.304v-0.13312c-0.512-0.768-0.90112-1.536-1.28-2.304-3.328-6.4-5.25312-13.70112-5.25312-21.38112 0.01024-7.66976 1.93536-14.97088 5.26336-21.37088z m0 0" fill="#2C2C2C" p-id="7174"></path></svg>