<svg t="1728954515079" class="icon" viewBox="0 0 1024 1024" version="1.1" xmlns="http://www.w3.org/2000/svg" p-id="10074" width="32" height="32"><path d="M256 378.667h256a21.333 21.333 0 0 1 3.84 42.325l-3.84 0.341H256a21.333 21.333 0 0 1-3.84-42.325l3.84-0.341z m0 112h256a21.333 21.333 0 0 1 3.84 42.325l-3.84 0.341H256a21.333 21.333 0 0 1-3.84-42.325l3.84-0.341z m0 112h512a21.333 21.333 0 0 1 3.84 42.325l-3.84 0.341H256a21.333 21.333 0 0 1-3.84-42.325l3.84-0.341z m416-325.334a21.333 21.333 0 0 1 20.992 17.494l0.341 3.84V544a21.333 21.333 0 0 1-42.325 3.84l-0.341-3.84V298.667A21.333 21.333 0 0 1 672 277.333z" fill="#333333" p-id="10075"></path><path d="M787.499 371.499a21.333 21.333 0 0 0 2.474-27.222l-2.474-2.944L676.437 230.23 565.333 341.333a21.333 21.333 0 0 0 27.222 32.64l2.986-2.474 80.896-80.854 80.896 80.854a21.333 21.333 0 0 0 27.222 2.474l2.986-2.474zM256 714.667h512a21.333 21.333 0 0 1 3.84 42.325l-3.84 0.341H256a21.333 21.333 0 0 1-3.84-42.325l3.84-0.341z m256-448a21.333 21.333 0 0 1 3.84 42.325l-3.84 0.341H256a21.333 21.333 0 0 1-3.84-42.325l3.84-0.341h256z" fill="#333333" p-id="10076"></path></svg>