<svg t="1709014173919" class="icon" viewBox="0 0 1059 1024" version="1.1" xmlns="http://www.w3.org/2000/svg" p-id="5018" width="16" height="16"><path d="M767.061162 1023.212587a292.130131 292.130131 0 1 1 292.008991-292.130131 292.069561 292.069561 0 0 1-292.008991 292.130131z m0-511.212587a219.082456 219.082456 0 1 0 219.021885 219.082456 219.021886 219.021886 0 0 0-219.021885-219.082456z m109.026381 273.837927h-127.197445a36.342127 36.342127 0 0 1-36.342127-36.342127v-109.510943a36.463267 36.463267 0 1 1 72.987105 0v72.684255h90.855318a36.584408 36.584408 0 0 1-0.423992 73.168815zM256.151426 548.523838h72.987105a36.463267 36.463267 0 1 1 0 72.987105H255.969715a36.463267 36.463267 0 1 1 0-72.987105z m0-292.190702h364.693245a36.523838 36.523838 0 0 1 0 73.047676H255.969715a36.523838 36.523838 0 0 1 0-73.047676z m584.078552 104.301905a36.342127 36.342127 0 0 1-36.342128-36.342127V116.113096a41.066604 41.066604 0 0 0-39.976339-42.399148H113.448007a41.066604 41.066604 0 0 0-39.97634 42.399148v792.137229a41.066604 41.066604 0 0 0 39.97634 42.096298H438.528333a36.523838 36.523838 0 0 1 0 73.047675H113.448007a114.114279 114.114279 0 0 1-112.963445-115.083402V115.931385a114.114279 114.114279 0 0 1 112.963445-115.083402h650.160653a114.114279 114.114279 0 0 1 112.963445 115.083402v208.179818a36.342127 36.342127 0 0 1-36.523838 36.523838z" fill="#ffffff" p-id="5019"></path></svg>