<svg t="1728954422698" class="icon" viewBox="0 0 1024 1024" version="1.1" xmlns="http://www.w3.org/2000/svg" p-id="9636" width="64" height="64"><path d="M240.896 487.424l214.357-214.315 131.158 133.547 118.4-118.315a21.333 21.333 0 0 1 27.221-2.474l2.987 2.474a21.333 21.333 0 0 1 2.432 27.179l-2.475 2.987-148.821 148.778-131.2-133.589L271.06 517.589a21.333 21.333 0 0 1-27.178 2.475l-2.987-2.475a21.333 21.333 0 0 1-2.432-27.221l2.432-2.944z m48.299 126.507a21.333 21.333 0 0 1 20.992 17.493l0.341 3.84V768a21.333 21.333 0 0 1-42.325 3.84l-0.342-3.84V635.264a21.333 21.333 0 0 1 21.334-21.333z" fill="#333333" p-id="9637"></path><path d="M449.579 448a21.333 21.333 0 0 1 20.992 17.493l0.341 3.84V768a21.333 21.333 0 0 1-42.325 3.84l-0.342-3.84V469.333A21.333 21.333 0 0 1 449.58 448z m160.384 99.541a21.333 21.333 0 0 1 20.992 17.494l0.341 3.84V768a21.333 21.333 0 0 1-42.325 3.84l-0.342-3.84V568.875a21.333 21.333 0 0 1 21.334-21.334z m160.426 33.195a21.333 21.333 0 0 1 20.95 17.493l0.384 3.84V768a21.333 21.333 0 0 1-42.326 3.84l-0.341-3.84V602.07a21.333 21.333 0 0 1 21.333-21.334z m-2.986-166.443a21.333 21.333 0 0 0 19.584-19.072l0.042-3.84-10.794-140.245-140.246-10.795a21.333 21.333 0 0 0-7.082 41.899l3.84 0.64 103.765 8.021 7.979 103.766a21.333 21.333 0 0 0 19.072 19.584l3.84 0.042z" fill="#333333" p-id="9638"></path></svg>