<svg t="1707318312517" class="icon" viewBox="0 0 1024 1024" version="1.1" xmlns="http://www.w3.org/2000/svg" p-id="17849" width="16" height="16"><path d="M904.734118 530.672941V123.482353a127.698824 127.698824 0 0 0-131.915294-120.470588H171.068235a128.301176 128.301176 0 0 0-132.517647 120.470588v706.56a128.301176 128.301176 0 0 0 132.517647 123.482353h280.094118zM286.72 257.204706h370.447059c16.865882 0 31.322353 18.672941 31.322353 42.164706s-14.456471 42.164706-31.322353 42.164706H286.72c-17.468235 0-31.322353-19.275294-31.322353-42.164706s13.854118-42.164706 31.322353-42.164706zM255.397647 481.882353c0-23.491765 13.854118-42.164706 31.322353-42.164706h370.447059c16.865882 0 31.322353 18.672941 31.322353 42.164706s-14.456471 42.164706-31.322353 42.164706H286.72c-17.468235 0-31.322353-18.672941-31.322353-42.164706zM635.482353 973.402353L580.668235 920.997647l280.696471-257.204706 54.814118 52.404706-280.696471 257.204706zM949.910588 685.477647l-55.41647-52.404706 28.310588-25.901176a24.696471 24.696471 0 0 1 33.731765 0l21.684705 20.48a21.684706 21.684706 0 0 1 0 31.322353zM523.444706 1024l84.329412-24.696471-55.416471-52.404705L523.444706 1024z" fill="#2c2c2c" p-id="17850"></path></svg>